<!DOCTYPE svg PUBLIC "-//W3C//DTD SVG 1.1//EN" "http://www.w3.org/Graphics/SVG/1.1/DTD/svg11.dtd">
<!-- Uploaded to: SVG Repo, www.svgrepo.com, Transformed by: SVG Repo Mixer Tools -->
<svg fill="#ffffff" height="800px" width="800px" version="1.1" id="Capa_1" xmlns="http://www.w3.org/2000/svg" xmlns:xlink="http://www.w3.org/1999/xlink" viewBox="0 0 290 290" xml:space="preserve" stroke="#ffffff">
<g id="SVGRepo_bgCarrier" stroke-width="0"/>
<g id="SVGRepo_tracerCarrier" stroke-linecap="round" stroke-linejoin="round"/>
<g id="SVGRepo_iconCarrier"> <path d="M205.807,0h-15.694c-43.62,0-79.107,35.488-79.107,79.108v33.386H84.193c-2.761,0-5,2.239-5,5v40c0,2.761,2.239,5,5,5 h26.811V285c0,2.761,2.239,5,5,5h40c2.761,0,5-2.239,5-5V162.494h39.786c2.761,0,5-2.239,5-5v-40c0-2.761-2.239-5-5-5h-39.786 V79.108c0-16.05,13.058-29.108,29.107-29.108h15.694c2.761,0,5-2.239,5-5V5C210.807,2.239,208.568,0,205.807,0z"/> </g>
</svg>